<?xml version="1.0" encoding="UTF-8" standalone="no"?>
<!-- Created with Inkscape (http://www.inkscape.org/) -->

<svg
   xmlns:dc="http://purl.org/dc/elements/1.1/"
   xmlns:cc="http://creativecommons.org/ns#"
   xmlns:rdf="http://www.w3.org/1999/02/22-rdf-syntax-ns#"
   xmlns:svg="http://www.w3.org/2000/svg"
   xmlns="http://www.w3.org/2000/svg"
   xmlns:sodipodi="http://sodipodi.sourceforge.net/DTD/sodipodi-0.dtd"
   xmlns:inkscape="http://www.inkscape.org/namespaces/inkscape"
   width="99.611504mm"
   height="23.707975mm"
   viewBox="0 0 99.611502 23.707975"
   version="1.1"
   id="svg8"
   inkscape:version="0.92.4 (5da689c313, 2019-01-14)"
   sodipodi:docname="tmux_version_diff_demo.svg">
  <defs
     id="defs2" />
  <sodipodi:namedview
     id="base"
     pagecolor="#ffffff"
     bordercolor="#666666"
     borderopacity="1.0"
     inkscape:pageopacity="0.0"
     inkscape:pageshadow="2"
     inkscape:zoom="0.98994949"
     inkscape:cx="23.354146"
     inkscape:cy="-201.68197"
     inkscape:document-units="mm"
     inkscape:current-layer="layer1"
     showgrid="false"
     inkscape:pagecheckerboard="false"
     fit-margin-top="0"
     fit-margin-left="0"
     fit-margin-right="0"
     fit-margin-bottom="0"
     inkscape:window-width="1920"
     inkscape:window-height="1060"
     inkscape:window-x="0"
     inkscape:window-y="20"
     inkscape:window-maximized="0" />
  <metadata
     id="metadata5">
    <rdf:RDF>
      <cc:Work
         rdf:about="">
        <dc:format>image/svg+xml</dc:format>
        <dc:type
           rdf:resource="http://purl.org/dc/dcmitype/StillImage" />
        <dc:title></dc:title>
      </cc:Work>
    </rdf:RDF>
  </metadata>
  <g
     inkscape:label="Layer 1"
     inkscape:groupmode="layer"
     id="layer1"
     transform="translate(-23.532749,-136.76906)">
    <rect
       style="opacity:1;fill:#073642;fill-opacity:1;stroke:none;stroke-width:2.15780783;stroke-linejoin:miter;stroke-miterlimit:4;stroke-dasharray:none;stroke-dashoffset:0;stroke-opacity:1"
       id="rect26"
       width="99.611504"
       height="23.707975"
       x="23.532749"
       y="136.76906" />
    <rect
       style="opacity:1;fill:#b58900;fill-opacity:1;stroke:none;stroke-width:1.69999993;stroke-linejoin:miter;stroke-miterlimit:4;stroke-dasharray:none;stroke-dashoffset:0;stroke-opacity:1"
       id="rect833"
       width="71.093697"
       height="14.967093"
       x="52.117554"
       y="145.45816" />
    <g
       aria-label="Purebred:"
       transform="scale(0.26458333)"
       style="font-style:normal;font-variant:normal;font-weight:normal;font-stretch:normal;font-size:40px;line-height:125%;font-family:'IBM Plex Mono';-inkscape-font-specification:'IBM Plex Mono';letter-spacing:0px;word-spacing:0px;fill:#073642;fill-opacity:1;stroke:none;stroke-width:1px;stroke-linecap:butt;stroke-linejoin:miter;stroke-opacity:1"
       id="flowRoot18">
      <path
         d="m 204.10258,590.14922 v -11.84 h 6.8 c 5.16,0 7.96,-3 7.96,-8.04 0,-5.04 -2.8,-8.04 -7.96,-8.04 h -10.16 v 27.92 z m 0,-25 h 6.72 c 2.8,0 4.48,1.48 4.48,4.08 v 2.08 c 0,2.6 -1.68,4.08 -4.48,4.08 h -6.72 z"
         id="path892"
         inkscape:connector-curvature="0" />
      <path
         d="m 238.00695,590.14922 h 3.2 v -20.64 h -3.2 v 14.32 c 0,2.72 -2.56,3.96 -5.12,3.96 -3.16,0 -4.88,-1.84 -4.88,-5.6 v -12.68 h -3.2 v 13.24 c 0,5 2.84,7.88 7.16,7.88 3.4,0 5,-1.8 5.88,-3.84 h 0.16 z"
         id="path894"
         inkscape:connector-curvature="0" />
      <path
         d="m 248.19133,590.14922 h 17.24 v -2.72 h -8 v -8.92 c 0,-3.2 2.12,-5.8 6.16,-5.8 h 3.88 v -3.2 h -2.88 c -4.32,0 -6.16,2.48 -6.96,5.2 h -0.2 v -5.2 h -9.24 v 2.72 h 6.04 v 15.2 h -6.04 z"
         id="path896"
         inkscape:connector-curvature="0" />
      <path
         d="m 281.4557,590.62922 c 4.08,0 7.04,-2 8.28,-4.76 l -2.36,-1.6 c -1.08,2.24 -3.16,3.6 -5.92,3.6 -3.88,0 -6.32,-2.64 -6.32,-6.28 v -0.96 h 15.28 v -1.52 c 0,-5.84 -3.6,-10.08 -9.16,-10.08 -5.6,0 -9.48,4.24 -9.48,10.84 0,6.52 3.76,10.76 9.68,10.76 z m -0.2,-18.96 c 3.4,0 5.72,2.48 5.72,6.12 v 0.44 h -11.84 v -0.28 c 0,-3.6 2.6,-6.28 6.12,-6.28 z"
         id="path898"
         inkscape:connector-curvature="0" />
      <path
         d="m 296.88008,590.14922 h 3.2 v -3.36 h 0.16 c 1.32,2.52 3.48,3.84 6.36,3.84 5.04,0 8.08,-4.04 8.08,-10.8 0,-6.76 -3.04,-10.8 -8.08,-10.8 -2.88,0 -5.04,1.32 -6.36,3.84 h -0.16 v -12.32 h -3.2 z m 8.48,-2.36 c -2.84,0 -5.28,-1.48 -5.28,-4.24 v -7.44 c 0,-2.76 2.44,-4.24 5.28,-4.24 3.72,0 5.88,2.48 5.88,6.2 v 3.52 c 0,3.72 -2.16,6.2 -5.88,6.2 z"
         id="path900"
         inkscape:connector-curvature="0" />
      <path
         d="m 320.14445,590.14922 h 17.24 v -2.72 h -8 v -8.92 c 0,-3.2 2.12,-5.8 6.16,-5.8 h 3.88 v -3.2 h -2.88 c -4.32,0 -6.16,2.48 -6.96,5.2 h -0.2 v -5.2 h -9.24 v 2.72 h 6.04 v 15.2 h -6.04 z"
         id="path902"
         inkscape:connector-curvature="0" />
      <path
         d="m 353.40883,590.62922 c 4.08,0 7.04,-2 8.28,-4.76 l -2.36,-1.6 c -1.08,2.24 -3.16,3.6 -5.92,3.6 -3.88,0 -6.32,-2.64 -6.32,-6.28 v -0.96 h 15.28 v -1.52 c 0,-5.84 -3.6,-10.08 -9.16,-10.08 -5.6,0 -9.48,4.24 -9.48,10.84 0,6.52 3.76,10.76 9.68,10.76 z m -0.2,-18.96 c 3.4,0 5.72,2.48 5.72,6.12 v 0.44 h -11.84 v -0.28 c 0,-3.6 2.6,-6.28 6.12,-6.28 z"
         id="path904"
         inkscape:connector-curvature="0" />
      <path
         d="m 382.0332,590.14922 h 3.2 v -29.6 h -3.2 v 12.32 h -0.16 c -1.32,-2.52 -3.48,-3.84 -6.36,-3.84 -5.04,0 -8.08,4.04 -8.08,10.8 0,6.76 3.04,10.8 8.08,10.8 2.88,0 5.04,-1.32 6.36,-3.84 h 0.16 z m -5.28,-2.36 c -3.72,0 -5.88,-2.48 -5.88,-6.2 v -3.52 c 0,-3.72 2.16,-6.2 5.88,-6.2 2.84,0 5.28,1.48 5.28,4.24 v 7.44 c 0,2.76 -2.44,4.24 -5.28,4.24 z"
         id="path906"
         inkscape:connector-curvature="0" />
      <path
         d="m 401.01758,574.66922 c 2.16,0 2.96,-1.04 2.96,-2.4 v -0.72 c 0,-1.36 -0.8,-2.4 -2.96,-2.4 -2.16,0 -2.96,1.04 -2.96,2.4 v 0.72 c 0,1.36 0.8,2.4 2.96,2.4 z m 0,15.84 c 2.16,0 2.96,-1.04 2.96,-2.4 v -0.72 c 0,-1.36 -0.8,-2.4 -2.96,-2.4 -2.16,0 -2.96,1.04 -2.96,2.4 v 0.72 c 0,1.36 0.8,2.4 2.96,2.4 z"
         id="path908"
         inkscape:connector-curvature="0" />
    </g>
  </g>
</svg>
